<?xml version="1.0" standalone="no"?>
<!DOCTYPE svg PUBLIC "-//W3C//DTD SVG 20010904//EN"
 "http://www.w3.org/TR/2001/REC-SVG-20010904/DTD/svg10.dtd">
<svg version="1.0" xmlns="http://www.w3.org/2000/svg"
 width="300.000000pt" height="303.000000pt" viewBox="0 0 300.000000 303.000000"
 preserveAspectRatio="xMidYMid meet">
<metadata>
Created by potrace 1.10, written by Peter Selinger 2001-2011
</metadata>
<g transform="translate(0.000000,303.000000) scale(0.100000,-0.100000)"
fill="#ffffff" stroke="none">
<path d="M311 2045 c1 -374 5 -700 8 -725 14 -95 21 159 21 768 l0 612 1183
-2 1182 -3 3 -902 2 -903 -1032 -2 c-568 -1 -1102 -2 -1185 -2 -146 -1 -153 0
-155 19 -1 11 -2 27 -4 35 -1 8 -2 46 -3 84 -1 38 -3 67 -7 64 -3 -3 -7 -182
-10 -397 l-6 -391 1214 0 1213 0 -2 1210 -3 1210 -1210 3 -1211 2 2 -680z
m2399 -1345 l0 -160 -1184 0 -1184 0 -4 143 c-2 78 -2 151 0 162 3 20 10 20
1188 17 l1184 -2 0 -160z m0 -280 l0 -90 -1185 0 -1185 0 0 90 0 90 1185 0
1185 0 0 -90z"/>
<path d="M1522 715 c4 -168 22 -170 26 -2 2 110 0 127 -13 127 -13 0 -15 -17
-13 -125z"/>
<path d="M854 814 c3 -9 6 -67 6 -130 0 -69 4 -114 10 -114 6 0 10 50 10 130
0 113 -2 130 -16 130 -11 0 -14 -5 -10 -16z"/>
<path d="M960 701 c0 -111 2 -131 15 -131 13 0 15 18 13 127 -2 90 -7 128 -15
131 -10 3 -13 -27 -13 -127z"/>
<path d="M499 771 c-23 -23 -29 -38 -29 -71 0 -79 86 -128 148 -84 38 27 55
70 42 109 -25 76 -107 99 -161 46z m106 3 c19 -8 45 -55 45 -82 0 -11 -12 -31
-26 -46 -35 -34 -82 -35 -114 -1 -61 65 10 161 95 129z"/>
<path d="M540 700 c0 -33 14 -38 43 -16 17 13 17 15 -5 30 -32 22 -38 20 -38
-14z"/>
<path d="M1690 695 c0 -13 53 -15 420 -15 367 0 420 2 420 15 0 13 -53 15
-420 15 -367 0 -420 -2 -420 -15z"/>
<path d="M1150 685 c0 -13 21 -15 130 -15 109 0 130 2 130 15 0 13 -21 15
-130 15 -109 0 -130 -2 -130 -15z"/>
<path d="M1510 2218 c0 -100 3 -402 7 -670 5 -386 9 -488 19 -488 10 0 12 109
8 558 -7 778 -7 775 -21 780 -10 3 -13 -37 -13 -180z"/>
<path d="M868 2065 c-58 -16 -173 -77 -212 -113 -47 -44 -66 -100 -72 -214 -3
-58 -12 -118 -21 -137 -9 -20 -13 -45 -9 -64 8 -41 50 -100 82 -118 14 -7 42
-37 61 -66 19 -29 57 -72 85 -96 59 -51 61 -81 4 -91 -60 -11 -240 -146 -195
-146 9 0 28 14 44 30 16 17 32 30 36 30 4 0 12 -13 18 -30 5 -16 15 -30 22
-30 6 0 8 7 5 16 -22 57 -20 62 33 88 70 36 83 34 79 -9 -2 -19 2 -34 7 -35 6
0 11 29 13 65 3 63 4 66 25 58 29 -11 147 -10 170 1 15 7 17 1 17 -69 0 -42
-5 -85 -11 -97 -9 -17 -8 -19 7 -16 20 4 32 35 33 91 1 35 3 38 24 31 12 -3
39 -15 60 -26 31 -15 38 -24 33 -39 -3 -10 -9 -28 -12 -39 -10 -33 16 -23 27
10 6 17 14 30 18 30 4 0 20 -13 36 -30 16 -16 35 -30 44 -30 44 0 -120 124
-194 145 -58 17 -58 43 1 84 25 19 66 60 90 93 24 33 58 70 76 82 66 44 96
136 61 185 -11 17 -17 48 -18 105 0 45 -7 99 -15 121 -39 117 -133 185 -256
185 -30 0 -54 5 -54 10 0 20 -41 50 -67 49 -16 0 -49 -7 -75 -14z m114 -50
c20 -14 50 -25 66 -25 16 0 50 -6 76 -14 109 -33 165 -115 174 -254 l5 -83
-39 7 c-49 9 -54 11 -54 33 0 27 -31 112 -54 148 -48 75 -85 48 -106 -76 -14
-87 -30 -112 -54 -92 -11 9 -20 10 -35 1 -12 -6 -21 -14 -21 -19 0 -11 -47
-31 -73 -31 -13 0 -32 -7 -44 -15 -19 -13 -24 -13 -50 0 -16 9 -55 15 -90 15
l-63 0 0 85 c0 120 14 176 56 219 41 43 111 84 179 108 67 23 84 22 127 -7z
m198 -330 c0 -2 -25 -4 -56 -4 -48 0 -55 3 -49 17 12 32 26 122 20 132 -3 6
-3 15 1 21 5 8 84 -148 84 -166z m-193 -37 c-15 -41 -17 -57 -7 -63 19 -12 48
5 60 35 14 34 56 47 115 36 28 -6 35 -11 35 -31 0 -23 -3 -24 -47 -19 -35 4
-54 1 -68 -10 -14 -11 -17 -18 -9 -23 7 -5 14 -19 15 -33 3 -19 10 -25 29 -25
22 0 25 4 24 36 -1 37 -1 37 29 26 28 -9 33 -7 59 21 33 37 38 39 38 12 0 -11
5 -29 12 -40 18 -29 -21 -141 -76 -214 -135 -179 -322 -187 -457 -21 -38 48
-85 146 -95 198 l-6 37 65 0 c64 0 66 -1 69 -27 2 -20 9 -29 26 -31 18 -3 23
2 28 27 5 26 11 31 34 31 69 0 89 11 100 51 6 22 16 39 21 39 6 0 9 -6 6 -12z
m-357 -144 c16 -63 16 -63 -3 -46 -29 26 -47 67 -47 107 0 34 1 35 17 19 10
-9 25 -45 33 -80z m706 22 c-7 -34 -41 -84 -51 -75 -8 8 22 118 37 137 11 13
13 12 16 -8 2 -12 1 -37 -2 -54z"/>
<path d="M933 1428 c2 -7 14 -13 27 -13 13 0 25 6 28 13 2 8 -7 12 -28 12 -21
0 -30 -4 -27 -12z"/>
<path d="M885 1381 c-15 -26 70 -40 121 -21 39 15 18 33 -25 20 -20 -5 -42 -5
-57 1 -31 11 -31 11 -39 0z"/>
<path d="M1750 1938 c-65 -34 -92 -90 -88 -185 4 -102 22 -97 28 7 8 136 34
162 169 170 48 3 86 10 86 15 0 6 -34 11 -75 13 -62 2 -83 -1 -120 -20z"/>
<path d="M2310 1945 c0 -12 16 -15 83 -15 134 0 177 -43 177 -179 0 -53 3 -71
14 -71 10 0 12 16 9 73 -6 98 -9 111 -40 148 -37 44 -80 59 -168 59 -60 0 -75
-3 -75 -15z"/>
<path d="M2024 1811 c-99 -45 -164 -137 -169 -241 -2 -32 -11 -69 -19 -82 -12
-19 -14 -32 -6 -59 19 -65 32 -89 51 -89 11 0 32 -20 52 -52 43 -66 81 -102
129 -122 99 -42 206 12 268 134 13 25 27 40 39 40 27 0 40 21 54 85 10 49 9
59 -4 68 -10 8 -15 30 -16 67 0 73 -30 138 -87 194 -76 74 -201 98 -292 57z
m214 -30 c52 -27 119 -104 133 -154 6 -21 9 -59 8 -83 -2 -30 2 -49 15 -62 16
-18 16 -24 3 -68 -11 -40 -18 -50 -39 -52 -19 -2 -30 -14 -44 -44 -27 -61 -94
-125 -145 -138 -81 -22 -164 26 -221 126 -19 35 -36 54 -49 54 -22 0 -36 24
-45 79 -5 33 -3 42 10 47 14 5 16 14 11 45 -17 99 68 230 171 263 61 20 138
14 192 -13z"/>
<path d="M1661 1223 c3 -75 8 -95 29 -125 39 -57 73 -72 165 -73 109 0 113 19
5 25 -136 9 -162 35 -170 169 -3 59 -9 86 -19 89 -10 3 -12 -13 -10 -85z"/>
<path d="M2569 1223 c-6 -136 -45 -173 -184 -173 -57 0 -76 -3 -72 -12 3 -9
30 -13 89 -13 77 0 88 3 122 28 20 16 42 40 50 55 18 34 25 194 9 199 -7 3
-12 -25 -14 -84z"/>
</g>
</svg>
